<?xml version="1.0" encoding="UTF-8" standalone="no"?>
<!DOCTYPE svg PUBLIC "-//W3C//DTD SVG 1.1//EN" "http://www.w3.org/Graphics/SVG/1.1/DTD/svg11.dtd">
<svg version="1.1" xmlns="http://www.w3.org/2000/svg" xmlns:xlink="http://www.w3.org/1999/xlink" preserveAspectRatio="xMidYMid meet" viewBox="0 0 640 640" width="640" height="640"><defs><path d="M36.85 1.85C38.18 1.85 38.85 2.51 38.85 3.85C38.85 23.65 38.85 34.65 38.85 36.85C38.85 38.18 38.18 38.85 36.85 38.85C17.05 38.85 6.05 38.85 3.85 38.85C2.51 38.85 1.85 38.18 1.85 36.85C1.85 17.05 1.85 6.05 1.85 3.85C1.85 2.51 2.51 1.85 3.85 1.85C23.65 1.85 34.65 1.85 36.85 1.85Z" id="giDJThIo3"></path><path d="M30.34 9.55C30.07 9.55 29.82 9.66 29.63 9.84C28.72 10.73 24.2 15.16 16.05 23.16C13.07 20.23 11.41 18.61 11.08 18.28C10.99 18.19 10.88 18.11 10.75 18.06C10.63 18.01 10.5 17.99 10.36 17.99C10.23 17.99 10.1 18.01 9.97 18.06C9.85 18.11 9.74 18.19 9.64 18.28C9.45 18.47 9.35 18.72 9.35 18.98C9.35 19.25 9.45 19.5 9.64 19.68C10.21 20.24 14.76 24.71 15.33 25.26C15.43 25.36 15.54 25.43 15.66 25.48C15.78 25.53 15.92 25.55 16.05 25.55C16.32 25.55 16.57 25.45 16.76 25.26C18.19 23.86 29.62 12.65 31.05 11.25C31.14 11.16 31.22 11.05 31.27 10.93C31.32 10.81 31.35 10.68 31.35 10.54C31.35 10.41 31.32 10.28 31.27 10.16C31.22 10.04 31.14 9.93 31.05 9.84C30.86 9.66 30.6 9.55 30.34 9.55Z" id="a7vT0o4MW"></path></defs><g><g><g><use xlink:href="#giDJThIo3" opacity="1" fill="#ffffff" fill-opacity="1"></use><g><use xlink:href="#giDJThIo3" opacity="1" fill-opacity="0" stroke="#283645" stroke-width="2" stroke-opacity="1"></use></g></g><g><use xlink:href="#a7vT0o4MW" opacity="1" fill="#d22856" fill-opacity="1"></use><g><use xlink:href="#a7vT0o4MW" opacity="1" fill-opacity="0" stroke="#000000" stroke-width="1" stroke-opacity="0"></use></g></g></g></g></svg>