<?xml version="1.0" encoding="UTF-8" standalone="no"?>
<!DOCTYPE svg PUBLIC "-//W3C//DTD SVG 1.1//EN" "http://www.w3.org/Graphics/SVG/1.1/DTD/svg11.dtd">
<svg version="1.1" xmlns="http://www.w3.org/2000/svg" xmlns:xlink="http://www.w3.org/1999/xlink" preserveAspectRatio="xMidYMid meet" viewBox="0 0 640 640" width="640" height="640"><defs><path d="M36.91 1.71L37.04 1.72L37.17 1.74L37.29 1.76L37.4 1.79L37.51 1.82L37.62 1.86L37.71 1.9L37.81 1.95L37.9 2L37.98 2.06L38.06 2.13L38.14 2.19L38.2 2.27L38.27 2.35L38.33 2.43L38.38 2.52L38.43 2.62L38.47 2.72L38.51 2.82L38.54 2.93L38.57 3.04L38.59 3.16L38.61 3.29L38.63 3.42L38.63 3.55L38.64 3.69L38.64 36.69L38.63 36.84L38.63 36.97L38.61 37.1L38.59 37.23L38.57 37.35L38.54 37.46L38.51 37.57L38.47 37.67L38.43 37.77L38.38 37.87L38.33 37.96L38.27 38.04L38.2 38.12L38.14 38.19L38.06 38.26L37.98 38.33L37.9 38.39L37.81 38.44L37.71 38.49L37.62 38.53L37.51 38.57L37.4 38.6L37.29 38.63L37.17 38.65L37.04 38.67L36.91 38.68L36.78 38.69L36.64 38.69L3.64 38.69L3.5 38.69L3.36 38.68L3.23 38.67L3.11 38.65L2.99 38.63L2.87 38.6L2.76 38.57L2.66 38.53L2.56 38.49L2.46 38.44L2.37 38.39L2.29 38.33L2.21 38.26L2.14 38.19L2.07 38.12L2 38.04L1.94 37.96L1.89 37.87L1.84 37.77L1.8 37.67L1.76 37.57L1.73 37.46L1.7 37.35L1.68 37.23L1.66 37.1L1.65 36.97L1.64 36.84L1.64 36.69L1.64 3.69L1.64 3.55L1.65 3.42L1.66 3.29L1.68 3.16L1.7 3.04L1.73 2.93L1.76 2.82L1.8 2.72L1.84 2.62L1.89 2.52L1.94 2.43L2 2.35L2.07 2.27L2.14 2.19L2.21 2.13L2.29 2.06L2.37 2L2.46 1.95L2.56 1.9L2.66 1.86L2.76 1.82L2.87 1.79L2.99 1.76L3.11 1.74L3.23 1.72L3.36 1.71L3.5 1.7L3.64 1.69L36.64 1.69L36.78 1.7L36.91 1.71Z" id="bd1LQTKJK"></path><path d="M30.13 9.55C29.86 9.55 29.61 9.66 29.42 9.84C28.51 10.73 23.99 15.16 15.84 23.16C12.86 20.23 11.2 18.61 10.87 18.28C10.78 18.19 10.66 18.11 10.54 18.06C10.42 18.01 10.28 17.99 10.15 17.99C10.02 17.99 9.88 18.01 9.76 18.06C9.64 18.11 9.52 18.19 9.43 18.28C9.24 18.47 9.14 18.72 9.14 18.98C9.14 19.25 9.24 19.5 9.43 19.68C10 20.24 14.55 24.71 15.12 25.26C15.21 25.36 15.33 25.43 15.45 25.48C15.57 25.53 15.71 25.55 15.84 25.55C16.1 25.55 16.36 25.45 16.55 25.26C17.98 23.86 29.41 12.65 30.84 11.25C30.93 11.16 31.01 11.05 31.06 10.93C31.11 10.81 31.14 10.68 31.14 10.54C31.14 10.41 31.11 10.28 31.06 10.16C31.01 10.04 30.93 9.93 30.84 9.84C30.65 9.66 30.39 9.55 30.13 9.55Z" id="ajrlGvVh"></path></defs><g><g><g><use xlink:href="#bd1LQTKJK" opacity="1" fill="#ffffff" fill-opacity="1"></use><g><use xlink:href="#bd1LQTKJK" opacity="1" fill-opacity="0" stroke="#e5e5e5" stroke-width="2" stroke-opacity="1"></use></g></g><g><use xlink:href="#ajrlGvVh" opacity="1" fill="#d22856" fill-opacity="1"></use><g><use xlink:href="#ajrlGvVh" opacity="1" fill-opacity="0" stroke="#000000" stroke-width="1" stroke-opacity="0"></use></g></g></g></g></svg>