<?xml version="1.0" encoding="UTF-8" standalone="no"?>
<!DOCTYPE svg PUBLIC "-//W3C//DTD SVG 1.1//EN" "http://www.w3.org/Graphics/SVG/1.1/DTD/svg11.dtd">
<svg version="1.1" xmlns="http://www.w3.org/2000/svg" xmlns:xlink="http://www.w3.org/1999/xlink" preserveAspectRatio="xMidYMid meet" viewBox="0 0 600 600" width="600" height="600"><defs><path d="M1523.87 -101.07C1523.87 -82.34 1523.87 -71.93 1523.87 -69.85C1523.87 -68.59 1523.24 -67.96 1521.97 -67.96C1503.24 -67.96 1492.84 -67.96 1490.76 -67.96C1489.5 -67.96 1488.87 -68.59 1488.87 -69.85C1488.87 -88.58 1488.87 -98.98 1488.87 -101.07C1488.87 -102.33 1489.5 -102.96 1490.76 -102.96C1509.49 -102.96 1519.89 -102.96 1521.97 -102.96C1523.24 -102.96 1523.87 -102.33 1523.87 -101.07Z" id="e1u1GkuYWq"></path><path d="M949.1 -102.07C949.1 -83.34 949.1 -72.93 949.1 -70.85C949.1 -69.59 948.47 -68.96 947.2 -68.96C928.47 -68.96 918.07 -68.96 915.99 -68.96C914.73 -68.96 914.1 -69.59 914.1 -70.85C914.1 -89.58 914.1 -99.98 914.1 -102.07C914.1 -103.33 914.73 -103.96 915.99 -103.96C934.72 -103.96 945.12 -103.96 947.2 -103.96C948.47 -103.96 949.1 -103.33 949.1 -102.07Z" id="gH973pOV7"></path><path d="M1523.87 -69.85C1523.87 -68.59 1523.24 -67.96 1521.97 -67.96C1503.24 -67.96 1492.84 -67.96 1490.76 -67.96C1489.5 -67.96 1488.87 -68.59 1488.87 -69.85C1488.87 -88.58 1488.87 -98.98 1488.87 -101.07C1488.87 -102.33 1489.5 -102.96 1490.76 -102.96C1509.49 -102.96 1519.89 -102.96 1521.97 -102.96C1523.24 -102.96 1523.87 -102.33 1523.87 -101.07C1523.87 -82.34 1523.87 -71.93 1523.87 -69.85Z" id="f2pvgpQG9d"></path><path d="M1523.87 -69.85C1523.87 -68.59 1523.24 -67.96 1521.97 -67.96C1503.24 -67.96 1492.84 -67.96 1490.76 -67.96C1489.5 -67.96 1488.87 -68.59 1488.87 -69.85C1488.87 -88.58 1488.87 -98.98 1488.87 -101.07C1488.87 -102.33 1489.5 -102.96 1490.76 -102.96C1509.49 -102.96 1519.89 -102.96 1521.97 -102.96C1523.24 -102.96 1523.87 -102.33 1523.87 -101.07C1523.87 -82.34 1523.87 -71.93 1523.87 -69.85Z" id="aeHkblVKe"></path><path d="M949.1 -70.85C949.1 -69.59 948.47 -68.96 947.2 -68.96C928.47 -68.96 918.07 -68.96 915.99 -68.96C914.73 -68.96 914.1 -69.59 914.1 -70.85C914.1 -89.58 914.1 -99.98 914.1 -102.07C914.1 -103.33 914.73 -103.96 915.99 -103.96C934.72 -103.96 945.12 -103.96 947.2 -103.96C948.47 -103.96 949.1 -103.33 949.1 -102.07C949.1 -83.34 949.1 -72.93 949.1 -70.85Z" id="aq3PoaVN9"></path><path d="M949.1 -70.85C949.1 -69.59 948.47 -68.96 947.2 -68.96C928.47 -68.96 918.07 -68.96 915.99 -68.96C914.73 -68.96 914.1 -69.59 914.1 -70.85C914.1 -89.58 914.1 -99.98 914.1 -102.07C914.1 -103.33 914.73 -103.96 915.99 -103.96C934.72 -103.96 945.12 -103.96 947.2 -103.96C948.47 -103.96 949.1 -103.33 949.1 -102.07C949.1 -83.34 949.1 -72.93 949.1 -70.85Z" id="b4owp5UCkY"></path><path d="M1523.87 -69.85C1523.87 -68.59 1523.24 -67.96 1521.97 -67.96C1503.24 -67.96 1492.84 -67.96 1490.76 -67.96C1489.5 -67.96 1488.87 -68.59 1488.87 -69.85C1488.87 -88.58 1488.87 -98.98 1488.87 -101.07C1488.87 -102.33 1489.5 -102.96 1490.76 -102.96C1509.49 -102.96 1519.89 -102.96 1521.97 -102.96C1523.24 -102.96 1523.87 -102.33 1523.87 -101.07C1523.87 -82.34 1523.87 -71.93 1523.87 -69.85Z" id="cTz3uUSDd"></path><path d="M1523.87 -69.85C1523.87 -68.59 1523.24 -67.96 1521.97 -67.96C1503.24 -67.96 1492.84 -67.96 1490.76 -67.96C1489.5 -67.96 1488.87 -68.59 1488.87 -69.85C1488.87 -88.58 1488.87 -98.98 1488.87 -101.07C1488.87 -102.33 1489.5 -102.96 1490.76 -102.96C1509.49 -102.96 1519.89 -102.96 1521.97 -102.96C1523.24 -102.96 1523.87 -102.33 1523.87 -101.07C1523.87 -82.34 1523.87 -71.93 1523.87 -69.85Z" id="akAkSRi4w"></path><path d="M949.1 -70.85C949.1 -69.59 948.47 -68.96 947.2 -68.96C928.47 -68.96 918.07 -68.96 915.99 -68.96C914.73 -68.96 914.1 -69.59 914.1 -70.85C914.1 -89.58 914.1 -99.98 914.1 -102.07C914.1 -103.33 914.73 -103.96 915.99 -103.96C934.72 -103.96 945.12 -103.96 947.2 -103.96C948.47 -103.96 949.1 -103.33 949.1 -102.07C949.1 -83.34 949.1 -72.93 949.1 -70.85Z" id="a1q30D24Ii"></path><path d="M949.1 -70.85C949.1 -69.59 948.47 -68.96 947.2 -68.96C928.47 -68.96 918.07 -68.96 915.99 -68.96C914.73 -68.96 914.1 -69.59 914.1 -70.85C914.1 -89.58 914.1 -99.98 914.1 -102.07C914.1 -103.33 914.73 -103.96 915.99 -103.96C934.72 -103.96 945.12 -103.96 947.2 -103.96C948.47 -103.96 949.1 -103.33 949.1 -102.07C949.1 -83.34 949.1 -72.93 949.1 -70.85Z" id="c2wBna3X6j"></path><path d="M1523.87 -69.85C1523.87 -68.59 1523.24 -67.96 1521.97 -67.96C1503.24 -67.96 1492.84 -67.96 1490.76 -67.96C1489.5 -67.96 1488.87 -68.59 1488.87 -69.85C1488.87 -88.58 1488.87 -98.98 1488.87 -101.07C1488.87 -102.33 1489.5 -102.96 1490.76 -102.96C1509.49 -102.96 1519.89 -102.96 1521.97 -102.96C1523.24 -102.96 1523.87 -102.33 1523.87 -101.07C1523.87 -82.34 1523.87 -71.93 1523.87 -69.85Z" id="c4RXr2jqtM"></path><path d="M1523.87 -69.85C1523.87 -68.59 1523.24 -67.96 1521.97 -67.96C1503.24 -67.96 1492.84 -67.96 1490.76 -67.96C1489.5 -67.96 1488.87 -68.59 1488.87 -69.85C1488.87 -88.58 1488.87 -98.98 1488.87 -101.07C1488.87 -102.33 1489.5 -102.96 1490.76 -102.96C1509.49 -102.96 1519.89 -102.96 1521.97 -102.96C1523.24 -102.96 1523.87 -102.33 1523.87 -101.07C1523.87 -82.34 1523.87 -71.93 1523.87 -69.85Z" id="dwJKXAMZq"></path><path d="M949.1 -70.85C949.1 -69.59 948.47 -68.96 947.2 -68.96C928.47 -68.96 918.07 -68.96 915.99 -68.96C914.73 -68.96 914.1 -69.59 914.1 -70.85C914.1 -89.58 914.1 -99.98 914.1 -102.07C914.1 -103.33 914.73 -103.96 915.99 -103.96C934.72 -103.96 945.12 -103.96 947.2 -103.96C948.47 -103.96 949.1 -103.33 949.1 -102.07C949.1 -83.34 949.1 -72.93 949.1 -70.85Z" id="a2zlVybFzU"></path><path d="M949.1 -70.85C949.1 -69.59 948.47 -68.96 947.2 -68.96C928.47 -68.96 918.07 -68.96 915.99 -68.96C914.73 -68.96 914.1 -69.59 914.1 -70.85C914.1 -89.58 914.1 -99.98 914.1 -102.07C914.1 -103.33 914.73 -103.96 915.99 -103.96C934.72 -103.96 945.12 -103.96 947.2 -103.96C948.47 -103.96 949.1 -103.33 949.1 -102.07C949.1 -83.34 949.1 -72.93 949.1 -70.85Z" id="b1SS5sWrFy"></path><path d="M1523.87 -69.85C1523.87 -68.59 1523.24 -67.96 1521.97 -67.96C1503.24 -67.96 1492.84 -67.96 1490.76 -67.96C1489.5 -67.96 1488.87 -68.59 1488.87 -69.85C1488.87 -88.58 1488.87 -98.98 1488.87 -101.07C1488.87 -102.33 1489.5 -102.96 1490.76 -102.96C1509.49 -102.96 1519.89 -102.96 1521.97 -102.96C1523.24 -102.96 1523.87 -102.33 1523.87 -101.07C1523.87 -82.34 1523.87 -71.93 1523.87 -69.85Z" id="b2gBOCBHY"></path><path d="M1523.87 -69.85C1523.87 -68.59 1523.24 -67.96 1521.97 -67.96C1503.24 -67.96 1492.84 -67.96 1490.76 -67.96C1489.5 -67.96 1488.87 -68.59 1488.87 -69.85C1488.87 -88.58 1488.87 -98.98 1488.87 -101.07C1488.87 -102.33 1489.5 -102.96 1490.76 -102.96C1509.49 -102.96 1519.89 -102.96 1521.97 -102.96C1523.24 -102.96 1523.87 -102.33 1523.87 -101.07C1523.87 -82.34 1523.87 -71.93 1523.87 -69.85Z" id="b6FpTMrbLc"></path><path d="M949.1 -70.85C949.1 -69.59 948.47 -68.96 947.2 -68.96C928.47 -68.96 918.07 -68.96 915.99 -68.96C914.73 -68.96 914.1 -69.59 914.1 -70.85C914.1 -89.58 914.1 -99.98 914.1 -102.07C914.1 -103.33 914.73 -103.96 915.99 -103.96C934.72 -103.96 945.12 -103.96 947.2 -103.96C948.47 -103.96 949.1 -103.33 949.1 -102.07C949.1 -83.34 949.1 -72.93 949.1 -70.85Z" id="c3QcNoYjXo"></path><path d="M949.1 -70.85C949.1 -69.59 948.47 -68.96 947.2 -68.96C928.47 -68.96 918.07 -68.96 915.99 -68.96C914.73 -68.96 914.1 -69.59 914.1 -70.85C914.1 -89.58 914.1 -99.98 914.1 -102.07C914.1 -103.33 914.73 -103.96 915.99 -103.96C934.72 -103.96 945.12 -103.96 947.2 -103.96C948.47 -103.96 949.1 -103.33 949.1 -102.07C949.1 -83.34 949.1 -72.93 949.1 -70.85Z" id="b4Vg19oHv"></path><path d="M1523.87 -69.85C1523.87 -68.59 1523.24 -67.96 1521.97 -67.96C1503.24 -67.96 1492.84 -67.96 1490.76 -67.96C1489.5 -67.96 1488.87 -68.59 1488.87 -69.85C1488.87 -88.58 1488.87 -98.98 1488.87 -101.07C1488.87 -102.33 1489.5 -102.96 1490.76 -102.96C1509.49 -102.96 1519.89 -102.96 1521.97 -102.96C1523.24 -102.96 1523.87 -102.33 1523.87 -101.07C1523.87 -82.34 1523.87 -71.93 1523.87 -69.85Z" id="b2U5E7K5W"></path><path d="M1523.87 -69.85C1523.87 -68.59 1523.24 -67.96 1521.97 -67.96C1503.24 -67.96 1492.84 -67.96 1490.76 -67.96C1489.5 -67.96 1488.87 -68.59 1488.87 -69.85C1488.87 -88.58 1488.87 -98.98 1488.87 -101.07C1488.87 -102.33 1489.5 -102.96 1490.76 -102.96C1509.49 -102.96 1519.89 -102.96 1521.97 -102.96C1523.24 -102.96 1523.87 -102.33 1523.87 -101.07C1523.87 -82.34 1523.87 -71.93 1523.87 -69.85Z" id="h6rLa8HXQc"></path><path d="M949.1 -70.85C949.1 -69.59 948.47 -68.96 947.2 -68.96C928.47 -68.96 918.07 -68.96 915.99 -68.96C914.73 -68.96 914.1 -69.59 914.1 -70.85C914.1 -89.58 914.1 -99.98 914.1 -102.07C914.1 -103.33 914.73 -103.96 915.99 -103.96C934.72 -103.96 945.12 -103.96 947.2 -103.96C948.47 -103.96 949.1 -103.33 949.1 -102.07C949.1 -83.34 949.1 -72.93 949.1 -70.85Z" id="b2Rr2rF9K"></path><path d="M949.1 -70.85C949.1 -69.59 948.47 -68.96 947.2 -68.96C928.47 -68.96 918.07 -68.96 915.99 -68.96C914.73 -68.96 914.1 -69.59 914.1 -70.85C914.1 -89.58 914.1 -99.98 914.1 -102.07C914.1 -103.33 914.73 -103.96 915.99 -103.96C934.72 -103.96 945.12 -103.96 947.2 -103.96C948.47 -103.96 949.1 -103.33 949.1 -102.07C949.1 -83.34 949.1 -72.93 949.1 -70.85Z" id="a2fhSp5XWB"></path><path d="M1523.87 -69.85C1523.87 -68.59 1523.24 -67.96 1521.97 -67.96C1503.24 -67.96 1492.84 -67.96 1490.76 -67.96C1489.5 -67.96 1488.87 -68.59 1488.87 -69.85C1488.87 -88.58 1488.87 -98.98 1488.87 -101.07C1488.87 -102.33 1489.5 -102.96 1490.76 -102.96C1509.49 -102.96 1519.89 -102.96 1521.97 -102.96C1523.24 -102.96 1523.87 -102.33 1523.87 -101.07C1523.87 -82.34 1523.87 -71.93 1523.87 -69.85Z" id="a3M96OgFj"></path><path d="M1523.87 -69.85C1523.87 -68.59 1523.24 -67.96 1521.97 -67.96C1503.24 -67.96 1492.84 -67.96 1490.76 -67.96C1489.5 -67.96 1488.87 -68.59 1488.87 -69.85C1488.87 -88.58 1488.87 -98.98 1488.87 -101.07C1488.87 -102.33 1489.5 -102.96 1490.76 -102.96C1509.49 -102.96 1519.89 -102.96 1521.97 -102.96C1523.24 -102.96 1523.87 -102.33 1523.87 -101.07C1523.87 -82.34 1523.87 -71.93 1523.87 -69.85Z" id="cw48jjry1"></path><path d="M949.1 -70.85C949.1 -69.59 948.47 -68.96 947.2 -68.96C928.47 -68.96 918.07 -68.96 915.99 -68.96C914.73 -68.96 914.1 -69.59 914.1 -70.85C914.1 -89.58 914.1 -99.98 914.1 -102.07C914.1 -103.33 914.73 -103.96 915.99 -103.96C934.72 -103.96 945.12 -103.96 947.2 -103.96C948.47 -103.96 949.1 -103.33 949.1 -102.07C949.1 -83.34 949.1 -72.93 949.1 -70.85Z" id="b5DGcIh9K"></path><path d="M949.1 -70.85C949.1 -69.59 948.47 -68.96 947.2 -68.96C928.47 -68.96 918.07 -68.96 915.99 -68.96C914.73 -68.96 914.1 -69.59 914.1 -70.85C914.1 -89.58 914.1 -99.98 914.1 -102.07C914.1 -103.33 914.73 -103.96 915.99 -103.96C934.72 -103.96 945.12 -103.96 947.2 -103.96C948.47 -103.96 949.1 -103.33 949.1 -102.07C949.1 -83.34 949.1 -72.93 949.1 -70.85Z" id="d1PuNYSX4q"></path><path d="M1523.87 -69.85C1523.87 -68.59 1523.24 -67.96 1521.97 -67.96C1503.24 -67.96 1492.84 -67.96 1490.76 -67.96C1489.5 -67.96 1488.87 -68.59 1488.87 -69.85C1488.87 -88.58 1488.87 -98.98 1488.87 -101.07C1488.87 -102.33 1489.5 -102.96 1490.76 -102.96C1509.49 -102.96 1519.89 -102.96 1521.97 -102.96C1523.24 -102.96 1523.87 -102.33 1523.87 -101.07C1523.87 -82.34 1523.87 -71.93 1523.87 -69.85Z" id="b1veVKuLyk"></path><path d="M1523.87 -69.85C1523.87 -68.59 1523.24 -67.96 1521.97 -67.96C1503.24 -67.96 1492.84 -67.96 1490.76 -67.96C1489.5 -67.96 1488.87 -68.59 1488.87 -69.85C1488.87 -88.58 1488.87 -98.98 1488.87 -101.07C1488.87 -102.33 1489.5 -102.96 1490.76 -102.96C1509.49 -102.96 1519.89 -102.96 1521.97 -102.96C1523.24 -102.96 1523.87 -102.33 1523.87 -101.07C1523.87 -82.34 1523.87 -71.93 1523.87 -69.85Z" id="cLtf7C92V"></path><path d="M949.1 -70.85C949.1 -69.59 948.47 -68.96 947.2 -68.96C928.47 -68.96 918.07 -68.96 915.99 -68.96C914.73 -68.96 914.1 -69.59 914.1 -70.85C914.1 -89.58 914.1 -99.98 914.1 -102.07C914.1 -103.33 914.73 -103.96 915.99 -103.96C934.72 -103.96 945.12 -103.96 947.2 -103.96C948.47 -103.96 949.1 -103.33 949.1 -102.07C949.1 -83.34 949.1 -72.93 949.1 -70.85Z" id="d3W7fwU6o"></path><path d="M949.1 -70.85C949.1 -69.59 948.47 -68.96 947.2 -68.96C928.47 -68.96 918.07 -68.96 915.99 -68.96C914.73 -68.96 914.1 -69.59 914.1 -70.85C914.1 -89.58 914.1 -99.98 914.1 -102.07C914.1 -103.33 914.73 -103.96 915.99 -103.96C934.72 -103.96 945.12 -103.96 947.2 -103.96C948.47 -103.96 949.1 -103.33 949.1 -102.07C949.1 -83.34 949.1 -72.93 949.1 -70.85Z" id="aiKSJVJkV"></path><path d="M1521.97 -67.96C1503.24 -67.96 1492.84 -67.96 1490.76 -67.96C1489.5 -67.96 1488.87 -68.59 1488.87 -69.85C1488.87 -88.58 1488.87 -98.98 1488.87 -101.07C1488.87 -102.33 1489.5 -102.96 1490.76 -102.96C1509.49 -102.96 1519.89 -102.96 1521.97 -102.96C1523.24 -102.96 1523.87 -102.33 1523.87 -101.07C1523.87 -82.34 1523.87 -71.93 1523.87 -69.85C1523.87 -68.59 1523.24 -67.96 1521.97 -67.96Z" id="a3DdOV0E0L"></path><path d="M1521.97 -67.96C1503.24 -67.96 1492.84 -67.96 1490.76 -67.96C1489.5 -67.96 1488.87 -68.59 1488.87 -69.85C1488.87 -88.58 1488.87 -98.98 1488.87 -101.07C1488.87 -102.33 1489.5 -102.96 1490.76 -102.96C1509.49 -102.96 1519.89 -102.96 1521.97 -102.96C1523.24 -102.96 1523.87 -102.33 1523.87 -101.07C1523.87 -82.34 1523.87 -71.93 1523.87 -69.85C1523.87 -68.59 1523.24 -67.96 1521.97 -67.96Z" id="d4XJ9eYnr"></path><path d="M1521.97 -67.96C1503.24 -67.96 1492.84 -67.96 1490.76 -67.96C1489.5 -67.96 1488.87 -68.59 1488.87 -69.85C1488.87 -88.58 1488.87 -98.98 1488.87 -101.07C1488.87 -102.33 1489.5 -102.96 1490.76 -102.96C1509.49 -102.96 1519.89 -102.96 1521.97 -102.96C1523.24 -102.96 1523.87 -102.33 1523.87 -101.07C1523.87 -82.34 1523.87 -71.93 1523.87 -69.85C1523.87 -68.59 1523.24 -67.96 1521.97 -67.96Z" id="j1xBbyXe8J"></path><path d="M1521.97 -67.96C1503.24 -67.96 1492.84 -67.96 1490.76 -67.96C1489.5 -67.96 1488.87 -68.59 1488.87 -69.85C1488.87 -88.58 1488.87 -98.98 1488.87 -101.07C1488.87 -102.33 1489.5 -102.96 1490.76 -102.96C1509.49 -102.96 1519.89 -102.96 1521.97 -102.96C1523.24 -102.96 1523.87 -102.33 1523.87 -101.07C1523.87 -82.34 1523.87 -71.93 1523.87 -69.85C1523.87 -68.59 1523.24 -67.96 1521.97 -67.96Z" id="b3pm3cMIh7"></path><path d="M947.2 -68.96C928.47 -68.96 918.07 -68.96 915.99 -68.96C914.73 -68.96 914.1 -69.59 914.1 -70.85C914.1 -89.58 914.1 -99.98 914.1 -102.07C914.1 -103.33 914.73 -103.96 915.99 -103.96C934.72 -103.96 945.12 -103.96 947.2 -103.96C948.47 -103.96 949.1 -103.33 949.1 -102.07C949.1 -83.34 949.1 -72.93 949.1 -70.85C949.1 -69.59 948.47 -68.96 947.2 -68.96Z" id="a2yCWDlaNd"></path><path d="M947.2 -68.96C928.47 -68.96 918.07 -68.96 915.99 -68.96C914.73 -68.96 914.1 -69.59 914.1 -70.85C914.1 -89.58 914.1 -99.98 914.1 -102.07C914.1 -103.33 914.73 -103.96 915.99 -103.96C934.72 -103.96 945.12 -103.96 947.2 -103.96C948.47 -103.96 949.1 -103.33 949.1 -102.07C949.1 -83.34 949.1 -72.93 949.1 -70.85C949.1 -69.59 948.47 -68.96 947.2 -68.96Z" id="c10Kg9txu0"></path><path d="M947.2 -68.96C928.47 -68.96 918.07 -68.96 915.99 -68.96C914.73 -68.96 914.1 -69.59 914.1 -70.85C914.1 -89.58 914.1 -99.98 914.1 -102.07C914.1 -103.33 914.73 -103.96 915.99 -103.96C934.72 -103.96 945.12 -103.96 947.2 -103.96C948.47 -103.96 949.1 -103.33 949.1 -102.07C949.1 -83.34 949.1 -72.93 949.1 -70.85C949.1 -69.59 948.47 -68.96 947.2 -68.96Z" id="dlJiz7cv9"></path><path d="M947.2 -68.96C928.47 -68.96 918.07 -68.96 915.99 -68.96C914.73 -68.96 914.1 -69.59 914.1 -70.85C914.1 -89.58 914.1 -99.98 914.1 -102.07C914.1 -103.33 914.73 -103.96 915.99 -103.96C934.72 -103.96 945.12 -103.96 947.2 -103.96C948.47 -103.96 949.1 -103.33 949.1 -102.07C949.1 -83.34 949.1 -72.93 949.1 -70.85C949.1 -69.59 948.47 -68.96 947.2 -68.96Z" id="e18z4h0nS1"></path><path d="M1523.87 -69.85C1523.87 -68.59 1523.24 -67.96 1521.97 -67.96C1503.24 -67.96 1492.84 -67.96 1490.76 -67.96C1489.5 -67.96 1488.87 -68.59 1488.87 -69.85C1488.87 -88.58 1488.87 -98.98 1488.87 -101.07C1488.87 -102.33 1489.5 -102.96 1490.76 -102.96C1509.49 -102.96 1519.89 -102.96 1521.97 -102.96C1523.24 -102.96 1523.87 -102.33 1523.87 -101.07C1523.87 -82.34 1523.87 -71.93 1523.87 -69.85Z" id="fA9MKPiOp"></path><path d="M1523.87 -69.85C1523.87 -68.59 1523.24 -67.96 1521.97 -67.96C1503.24 -67.96 1492.84 -67.96 1490.76 -67.96C1489.5 -67.96 1488.87 -68.59 1488.87 -69.85C1488.87 -88.58 1488.87 -98.98 1488.87 -101.07C1488.87 -102.33 1489.5 -102.96 1490.76 -102.96C1509.49 -102.96 1519.89 -102.96 1521.97 -102.96C1523.24 -102.96 1523.87 -102.33 1523.87 -101.07C1523.87 -82.34 1523.87 -71.93 1523.87 -69.85Z" id="ftIe4YjfD"></path><path d="M949.1 -70.85C949.1 -69.59 948.47 -68.96 947.2 -68.96C928.47 -68.96 918.07 -68.96 915.99 -68.96C914.73 -68.96 914.1 -69.59 914.1 -70.85C914.1 -89.58 914.1 -99.98 914.1 -102.07C914.1 -103.33 914.73 -103.96 915.99 -103.96C934.72 -103.96 945.12 -103.96 947.2 -103.96C948.47 -103.96 949.1 -103.33 949.1 -102.07C949.1 -83.34 949.1 -72.93 949.1 -70.85Z" id="er9qSr3Aw"></path><path d="M949.1 -70.85C949.1 -69.59 948.47 -68.96 947.2 -68.96C928.47 -68.96 918.07 -68.96 915.99 -68.96C914.73 -68.96 914.1 -69.59 914.1 -70.85C914.1 -89.58 914.1 -99.98 914.1 -102.07C914.1 -103.33 914.73 -103.96 915.99 -103.96C934.72 -103.96 945.12 -103.96 947.2 -103.96C948.47 -103.96 949.1 -103.33 949.1 -102.07C949.1 -83.34 949.1 -72.93 949.1 -70.85Z" id="gmOPYM3Ac"></path><path d="M1521.97 -67.96C1503.24 -67.96 1492.84 -67.96 1490.76 -67.96C1489.5 -67.96 1488.87 -68.59 1488.87 -69.85C1488.87 -88.58 1488.87 -98.98 1488.87 -101.07C1488.87 -102.33 1489.5 -102.96 1490.76 -102.96C1509.49 -102.96 1519.89 -102.96 1521.97 -102.96C1523.24 -102.96 1523.87 -102.33 1523.87 -101.07C1523.87 -82.34 1523.87 -71.93 1523.87 -69.85C1523.87 -68.59 1523.24 -67.96 1521.97 -67.96Z" id="c4oF8MFE4"></path><path d="M1521.97 -67.96C1503.24 -67.96 1492.84 -67.96 1490.76 -67.96C1489.5 -67.96 1488.87 -68.59 1488.87 -69.85C1488.87 -88.58 1488.87 -98.98 1488.87 -101.07C1488.87 -102.33 1489.5 -102.96 1490.76 -102.96C1509.49 -102.96 1519.89 -102.96 1521.97 -102.96C1523.24 -102.96 1523.87 -102.33 1523.87 -101.07C1523.87 -82.34 1523.87 -71.93 1523.87 -69.85C1523.87 -68.59 1523.24 -67.96 1521.97 -67.96Z" id="bwjBIckhw"></path><path d="M1521.97 -67.96C1503.24 -67.96 1492.84 -67.96 1490.76 -67.96C1489.5 -67.96 1488.87 -68.59 1488.87 -69.85C1488.87 -88.58 1488.87 -98.98 1488.87 -101.07C1488.87 -102.33 1489.5 -102.96 1490.76 -102.96C1509.49 -102.96 1519.89 -102.96 1521.97 -102.96C1523.24 -102.96 1523.87 -102.33 1523.87 -101.07C1523.87 -82.34 1523.87 -71.93 1523.87 -69.85C1523.87 -68.59 1523.24 -67.96 1521.97 -67.96Z" id="c2WZzr8lbl"></path><path d="M1521.97 -67.96C1503.24 -67.96 1492.84 -67.96 1490.76 -67.96C1489.5 -67.96 1488.87 -68.59 1488.87 -69.85C1488.87 -88.58 1488.87 -98.98 1488.87 -101.07C1488.87 -102.33 1489.5 -102.96 1490.76 -102.96C1509.49 -102.96 1519.89 -102.96 1521.97 -102.96C1523.24 -102.96 1523.87 -102.33 1523.87 -101.07C1523.87 -82.34 1523.87 -71.93 1523.87 -69.85C1523.87 -68.59 1523.24 -67.96 1521.97 -67.96Z" id="a3WMvD5p6K"></path><path d="M947.2 -68.96C928.47 -68.96 918.07 -68.96 915.99 -68.96C914.73 -68.96 914.1 -69.59 914.1 -70.85C914.1 -89.58 914.1 -99.98 914.1 -102.07C914.1 -103.33 914.73 -103.96 915.99 -103.96C934.72 -103.96 945.12 -103.96 947.2 -103.96C948.47 -103.96 949.1 -103.33 949.1 -102.07C949.1 -83.34 949.1 -72.93 949.1 -70.85C949.1 -69.59 948.47 -68.96 947.2 -68.96Z" id="j8s0STzHZ"></path><path d="M947.2 -68.96C928.47 -68.96 918.07 -68.96 915.99 -68.96C914.73 -68.96 914.1 -69.59 914.1 -70.85C914.1 -89.58 914.1 -99.98 914.1 -102.07C914.1 -103.33 914.73 -103.96 915.99 -103.96C934.72 -103.96 945.12 -103.96 947.2 -103.96C948.47 -103.96 949.1 -103.33 949.1 -102.07C949.1 -83.34 949.1 -72.93 949.1 -70.85C949.1 -69.59 948.47 -68.96 947.2 -68.96Z" id="a2SmtDG1H2"></path><path d="M947.2 -68.96C928.47 -68.96 918.07 -68.96 915.99 -68.96C914.73 -68.96 914.1 -69.59 914.1 -70.85C914.1 -89.58 914.1 -99.98 914.1 -102.07C914.1 -103.33 914.73 -103.96 915.99 -103.96C934.72 -103.96 945.12 -103.96 947.2 -103.96C948.47 -103.96 949.1 -103.33 949.1 -102.07C949.1 -83.34 949.1 -72.93 949.1 -70.85C949.1 -69.59 948.47 -68.96 947.2 -68.96Z" id="d5kpL8jH0"></path><path d="M947.2 -68.96C928.47 -68.96 918.07 -68.96 915.99 -68.96C914.73 -68.96 914.1 -69.59 914.1 -70.85C914.1 -89.58 914.1 -99.98 914.1 -102.07C914.1 -103.33 914.73 -103.96 915.99 -103.96C934.72 -103.96 945.12 -103.96 947.2 -103.96C948.47 -103.96 949.1 -103.33 949.1 -102.07C949.1 -83.34 949.1 -72.93 949.1 -70.85C949.1 -69.59 948.47 -68.96 947.2 -68.96Z" id="bmLw35UBv"></path><path d="M1521.97 -67.96C1503.24 -67.96 1492.84 -67.96 1490.76 -67.96C1489.5 -67.96 1488.87 -68.59 1488.87 -69.85C1488.87 -88.58 1488.87 -98.98 1488.87 -101.07C1488.87 -102.33 1489.5 -102.96 1490.76 -102.96C1509.49 -102.96 1519.89 -102.96 1521.97 -102.96C1523.24 -102.96 1523.87 -102.33 1523.87 -101.07C1523.87 -82.34 1523.87 -71.93 1523.87 -69.85C1523.87 -68.59 1523.24 -67.96 1521.97 -67.96Z" id="c2hXBD4b6A"></path><path d="M1521.97 -67.96C1503.24 -67.96 1492.84 -67.96 1490.76 -67.96C1489.5 -67.96 1488.87 -68.59 1488.87 -69.85C1488.87 -88.58 1488.87 -98.98 1488.87 -101.07C1488.87 -102.33 1489.5 -102.96 1490.76 -102.96C1509.49 -102.96 1519.89 -102.96 1521.97 -102.96C1523.24 -102.96 1523.87 -102.33 1523.87 -101.07C1523.87 -82.34 1523.87 -71.93 1523.87 -69.85C1523.87 -68.59 1523.24 -67.96 1521.97 -67.96Z" id="a32MbZhKK"></path><path d="M1521.97 -67.96C1503.24 -67.96 1492.84 -67.96 1490.76 -67.96C1489.5 -67.96 1488.87 -68.59 1488.87 -69.85C1488.87 -88.58 1488.87 -98.98 1488.87 -101.07C1488.87 -102.33 1489.5 -102.96 1490.76 -102.96C1509.49 -102.96 1519.89 -102.96 1521.97 -102.96C1523.24 -102.96 1523.87 -102.33 1523.87 -101.07C1523.87 -82.34 1523.87 -71.93 1523.87 -69.85C1523.87 -68.59 1523.24 -67.96 1521.97 -67.96Z" id="b2X2HUPH2F"></path><path d="M1521.97 -67.96C1503.24 -67.96 1492.84 -67.96 1490.76 -67.96C1489.5 -67.96 1488.87 -68.59 1488.87 -69.85C1488.87 -88.58 1488.87 -98.98 1488.87 -101.07C1488.87 -102.33 1489.5 -102.96 1490.76 -102.96C1509.49 -102.96 1519.89 -102.96 1521.97 -102.96C1523.24 -102.96 1523.87 -102.33 1523.87 -101.07C1523.87 -82.34 1523.87 -71.93 1523.87 -69.85C1523.87 -68.59 1523.24 -67.96 1521.97 -67.96Z" id="bkRW7InMs"></path><path d="M947.2 -68.96C928.47 -68.96 918.07 -68.96 915.99 -68.96C914.73 -68.96 914.1 -69.59 914.1 -70.85C914.1 -89.58 914.1 -99.98 914.1 -102.07C914.1 -103.33 914.73 -103.96 915.99 -103.96C934.72 -103.96 945.12 -103.96 947.2 -103.96C948.47 -103.96 949.1 -103.33 949.1 -102.07C949.1 -83.34 949.1 -72.93 949.1 -70.85C949.1 -69.59 948.47 -68.96 947.2 -68.96Z" id="b2eSCqvsgi"></path><path d="M947.2 -68.96C928.47 -68.96 918.07 -68.96 915.99 -68.96C914.73 -68.96 914.1 -69.59 914.1 -70.85C914.1 -89.58 914.1 -99.98 914.1 -102.07C914.1 -103.33 914.73 -103.96 915.99 -103.96C934.72 -103.96 945.12 -103.96 947.2 -103.96C948.47 -103.96 949.1 -103.33 949.1 -102.07C949.1 -83.34 949.1 -72.93 949.1 -70.85C949.1 -69.59 948.47 -68.96 947.2 -68.96Z" id="bn6TR2x6D"></path><path d="M947.2 -68.96C928.47 -68.96 918.07 -68.96 915.99 -68.96C914.73 -68.96 914.1 -69.59 914.1 -70.85C914.1 -89.58 914.1 -99.98 914.1 -102.07C914.1 -103.33 914.73 -103.96 915.99 -103.96C934.72 -103.96 945.12 -103.96 947.2 -103.96C948.47 -103.96 949.1 -103.33 949.1 -102.07C949.1 -83.34 949.1 -72.93 949.1 -70.85C949.1 -69.59 948.47 -68.96 947.2 -68.96Z" id="e2eeyWRvVt"></path><path d="M947.2 -68.96C928.47 -68.96 918.07 -68.96 915.99 -68.96C914.73 -68.96 914.1 -69.59 914.1 -70.85C914.1 -89.58 914.1 -99.98 914.1 -102.07C914.1 -103.33 914.73 -103.96 915.99 -103.96C934.72 -103.96 945.12 -103.96 947.2 -103.96C948.47 -103.96 949.1 -103.33 949.1 -102.07C949.1 -83.34 949.1 -72.93 949.1 -70.85C949.1 -69.59 948.47 -68.96 947.2 -68.96Z" id="cYq3vARk0"></path><path d="M1521.97 -67.96C1503.24 -67.96 1492.84 -67.96 1490.76 -67.96C1489.5 -67.96 1488.87 -68.59 1488.87 -69.85C1488.87 -88.58 1488.87 -98.98 1488.87 -101.07C1488.87 -102.33 1489.5 -102.96 1490.76 -102.96C1509.49 -102.96 1519.89 -102.96 1521.97 -102.96C1523.24 -102.96 1523.87 -102.33 1523.87 -101.07C1523.87 -82.34 1523.87 -71.93 1523.87 -69.85C1523.87 -68.59 1523.24 -67.96 1521.97 -67.96Z" id="b1oocMspGs"></path><path d="M1521.97 -67.96C1503.24 -67.96 1492.84 -67.96 1490.76 -67.96C1489.5 -67.96 1488.87 -68.59 1488.87 -69.85C1488.87 -88.58 1488.87 -98.98 1488.87 -101.07C1488.87 -102.33 1489.5 -102.96 1490.76 -102.96C1509.49 -102.96 1519.89 -102.96 1521.97 -102.96C1523.24 -102.96 1523.87 -102.33 1523.87 -101.07C1523.87 -82.34 1523.87 -71.93 1523.87 -69.85C1523.87 -68.59 1523.24 -67.96 1521.97 -67.96Z" id="gZCwkX4hz"></path><path d="M1521.97 -67.96C1503.24 -67.96 1492.84 -67.96 1490.76 -67.96C1489.5 -67.96 1488.87 -68.59 1488.87 -69.85C1488.87 -88.58 1488.87 -98.98 1488.87 -101.07C1488.87 -102.33 1489.5 -102.96 1490.76 -102.96C1509.49 -102.96 1519.89 -102.96 1521.97 -102.96C1523.24 -102.96 1523.87 -102.33 1523.87 -101.07C1523.87 -82.34 1523.87 -71.93 1523.87 -69.85C1523.87 -68.59 1523.24 -67.96 1521.97 -67.96Z" id="bJoAEgFLK"></path><path d="M1521.97 -67.96C1503.24 -67.96 1492.84 -67.96 1490.76 -67.96C1489.5 -67.96 1488.87 -68.59 1488.87 -69.85C1488.87 -88.58 1488.87 -98.98 1488.87 -101.07C1488.87 -102.33 1489.5 -102.96 1490.76 -102.96C1509.49 -102.96 1519.89 -102.96 1521.97 -102.96C1523.24 -102.96 1523.87 -102.33 1523.87 -101.07C1523.87 -82.34 1523.87 -71.93 1523.87 -69.85C1523.87 -68.59 1523.24 -67.96 1521.97 -67.96Z" id="atuWWq4uT"></path><path d="M947.2 -68.96C928.47 -68.96 918.07 -68.96 915.99 -68.96C914.73 -68.96 914.1 -69.59 914.1 -70.85C914.1 -89.58 914.1 -99.98 914.1 -102.07C914.1 -103.33 914.73 -103.96 915.99 -103.96C934.72 -103.96 945.12 -103.96 947.2 -103.96C948.47 -103.96 949.1 -103.33 949.1 -102.07C949.1 -83.34 949.1 -72.93 949.1 -70.85C949.1 -69.59 948.47 -68.96 947.2 -68.96Z" id="bC42lIqBR"></path><path d="M947.2 -68.96C928.47 -68.96 918.07 -68.96 915.99 -68.96C914.73 -68.96 914.1 -69.59 914.1 -70.85C914.1 -89.58 914.1 -99.98 914.1 -102.07C914.1 -103.33 914.73 -103.96 915.99 -103.96C934.72 -103.96 945.12 -103.96 947.2 -103.96C948.47 -103.96 949.1 -103.33 949.1 -102.07C949.1 -83.34 949.1 -72.93 949.1 -70.85C949.1 -69.59 948.47 -68.96 947.2 -68.96Z" id="d1W0sxNngM"></path><path d="M947.2 -68.96C928.47 -68.96 918.07 -68.96 915.99 -68.96C914.73 -68.96 914.1 -69.59 914.1 -70.85C914.1 -89.58 914.1 -99.98 914.1 -102.07C914.1 -103.33 914.73 -103.96 915.99 -103.96C934.72 -103.96 945.12 -103.96 947.2 -103.96C948.47 -103.96 949.1 -103.33 949.1 -102.07C949.1 -83.34 949.1 -72.93 949.1 -70.85C949.1 -69.59 948.47 -68.96 947.2 -68.96Z" id="agWeuZGmv"></path><path d="M947.2 -68.96C928.47 -68.96 918.07 -68.96 915.99 -68.96C914.73 -68.96 914.1 -69.59 914.1 -70.85C914.1 -89.58 914.1 -99.98 914.1 -102.07C914.1 -103.33 914.73 -103.96 915.99 -103.96C934.72 -103.96 945.12 -103.96 947.2 -103.96C948.47 -103.96 949.1 -103.33 949.1 -102.07C949.1 -83.34 949.1 -72.93 949.1 -70.85C949.1 -69.59 948.47 -68.96 947.2 -68.96Z" id="lh3QgADH"></path><path d="M1523.87 -69.85C1523.87 -68.59 1523.24 -67.96 1521.97 -67.96C1503.24 -67.96 1492.84 -67.96 1490.76 -67.96C1489.5 -67.96 1488.87 -68.59 1488.87 -69.85C1488.87 -88.58 1488.87 -98.98 1488.87 -101.07C1488.87 -102.33 1489.5 -102.96 1490.76 -102.96C1509.49 -102.96 1519.89 -102.96 1521.97 -102.96C1523.24 -102.96 1523.87 -102.33 1523.87 -101.07C1523.87 -82.34 1523.87 -71.93 1523.87 -69.85Z" id="chR9lnJNL"></path><path d="M1523.87 -69.85C1523.87 -68.59 1523.24 -67.96 1521.97 -67.96C1503.24 -67.96 1492.84 -67.96 1490.76 -67.96C1489.5 -67.96 1488.87 -68.59 1488.87 -69.85C1488.87 -88.58 1488.87 -98.98 1488.87 -101.07C1488.87 -102.33 1489.5 -102.96 1490.76 -102.96C1509.49 -102.96 1519.89 -102.96 1521.97 -102.96C1523.24 -102.96 1523.87 -102.33 1523.87 -101.07C1523.87 -82.34 1523.87 -71.93 1523.87 -69.85Z" id="ceQmqSbEW"></path><path d="M949.1 -70.85C949.1 -69.59 948.47 -68.96 947.2 -68.96C928.47 -68.96 918.07 -68.96 915.99 -68.96C914.73 -68.96 914.1 -69.59 914.1 -70.85C914.1 -89.58 914.1 -99.98 914.1 -102.07C914.1 -103.33 914.73 -103.96 915.99 -103.96C934.72 -103.96 945.12 -103.96 947.2 -103.96C948.47 -103.96 949.1 -103.33 949.1 -102.07C949.1 -83.34 949.1 -72.93 949.1 -70.85Z" id="a7mHNaIpL"></path><path d="M949.1 -70.85C949.1 -69.59 948.47 -68.96 947.2 -68.96C928.47 -68.96 918.07 -68.96 915.99 -68.96C914.73 -68.96 914.1 -69.59 914.1 -70.85C914.1 -89.58 914.1 -99.98 914.1 -102.07C914.1 -103.33 914.73 -103.96 915.99 -103.96C934.72 -103.96 945.12 -103.96 947.2 -103.96C948.47 -103.96 949.1 -103.33 949.1 -102.07C949.1 -83.34 949.1 -72.93 949.1 -70.85Z" id="a2GJdzV1fp"></path><path d="M36.28 34.5C36.28 35.69 35.69 36.28 34.5 36.28C16.84 36.28 7.02 36.28 5.06 36.28C3.87 36.28 3.28 35.69 3.28 34.5C3.28 16.84 3.28 7.02 3.28 5.06C3.28 3.87 3.87 3.28 5.06 3.28C22.72 3.28 32.54 3.28 34.5 3.28C35.69 3.28 36.28 3.87 36.28 5.06C36.28 22.72 36.28 32.54 36.28 34.5Z" id="ddb9yFlWs"></path><path d="M36.28 34.5C36.28 35.69 35.69 36.28 34.5 36.28C16.84 36.28 7.02 36.28 5.06 36.28C3.87 36.28 3.28 35.69 3.28 34.5C3.28 16.84 3.28 7.02 3.28 5.06C3.28 3.87 3.87 3.28 5.06 3.28C22.72 3.28 32.54 3.28 34.5 3.28C35.69 3.28 36.28 3.87 36.28 5.06C36.28 22.72 36.28 32.54 36.28 34.5Z" id="b3W1xuULWv"></path><path d="M36.28 34.5C36.28 35.69 35.69 36.28 34.5 36.28C16.84 36.28 7.02 36.28 5.06 36.28C3.87 36.28 3.28 35.69 3.28 34.5C3.28 16.84 3.28 7.02 3.28 5.06C3.28 3.87 3.87 3.28 5.06 3.28C22.72 3.28 32.54 3.28 34.5 3.28C35.69 3.28 36.28 3.87 36.28 5.06C36.28 22.72 36.28 32.54 36.28 34.5Z" id="cTOHKpnVn"></path><path d="M36.28 34.5C36.28 35.69 35.69 36.28 34.5 36.28C16.84 36.28 7.02 36.28 5.06 36.28C3.87 36.28 3.28 35.69 3.28 34.5C3.28 16.84 3.28 7.02 3.28 5.06C3.28 3.87 3.87 3.28 5.06 3.28C22.72 3.28 32.54 3.28 34.5 3.28C35.69 3.28 36.28 3.87 36.28 5.06C36.28 22.72 36.28 32.54 36.28 34.5Z" id="a7Ttay3me"></path></defs><g><g><g><use xlink:href="#e1u1GkuYWq" opacity="1" fill="#000000" fill-opacity="0"></use><g><use xlink:href="#e1u1GkuYWq" opacity="1" fill-opacity="0" stroke="#d22856" stroke-width="2" stroke-opacity="1"></use></g></g><g><use xlink:href="#gH973pOV7" opacity="1" fill="#000000" fill-opacity="0"></use><g><use xlink:href="#gH973pOV7" opacity="1" fill-opacity="0" stroke="#d22856" stroke-width="2" stroke-opacity="1"></use></g></g><g><use xlink:href="#f2pvgpQG9d" opacity="1" fill="#000000" fill-opacity="0"></use><g><use xlink:href="#f2pvgpQG9d" opacity="1" fill-opacity="0" stroke="#000000" stroke-width="1" stroke-opacity="0"></use></g></g><g><use xlink:href="#aeHkblVKe" opacity="1" fill="#000000" fill-opacity="0"></use><g><use xlink:href="#aeHkblVKe" opacity="1" fill-opacity="0" stroke="#d22856" stroke-width="2" stroke-opacity="1"></use></g></g><g><use xlink:href="#aq3PoaVN9" opacity="1" fill="#000000" fill-opacity="0"></use><g><use xlink:href="#aq3PoaVN9" opacity="1" fill-opacity="0" stroke="#000000" stroke-width="1" stroke-opacity="0"></use></g></g><g><use xlink:href="#b4owp5UCkY" opacity="1" fill="#000000" fill-opacity="0"></use><g><use xlink:href="#b4owp5UCkY" opacity="1" fill-opacity="0" stroke="#d22856" stroke-width="2" stroke-opacity="1"></use></g></g><g><use xlink:href="#cTz3uUSDd" opacity="1" fill="#000000" fill-opacity="0"></use><g><use xlink:href="#cTz3uUSDd" opacity="1" fill-opacity="0" stroke="#000000" stroke-width="1" stroke-opacity="0"></use></g></g><g><use xlink:href="#akAkSRi4w" opacity="1" fill="#000000" fill-opacity="0"></use><g><use xlink:href="#akAkSRi4w" opacity="1" fill-opacity="0" stroke="#d22856" stroke-width="2" stroke-opacity="1"></use></g></g><g><use xlink:href="#a1q30D24Ii" opacity="1" fill="#000000" fill-opacity="0"></use><g><use xlink:href="#a1q30D24Ii" opacity="1" fill-opacity="0" stroke="#000000" stroke-width="1" stroke-opacity="0"></use></g></g><g><use xlink:href="#c2wBna3X6j" opacity="1" fill="#000000" fill-opacity="0"></use><g><use xlink:href="#c2wBna3X6j" opacity="1" fill-opacity="0" stroke="#d22856" stroke-width="2" stroke-opacity="1"></use></g></g><g><use xlink:href="#c4RXr2jqtM" opacity="1" fill="#000000" fill-opacity="0"></use><g><use xlink:href="#c4RXr2jqtM" opacity="1" fill-opacity="0" stroke="#000000" stroke-width="1" stroke-opacity="0"></use></g></g><g><use xlink:href="#dwJKXAMZq" opacity="1" fill="#000000" fill-opacity="0"></use><g><use xlink:href="#dwJKXAMZq" opacity="1" fill-opacity="0" stroke="#d22856" stroke-width="2" stroke-opacity="1"></use></g></g><g><use xlink:href="#a2zlVybFzU" opacity="1" fill="#000000" fill-opacity="0"></use><g><use xlink:href="#a2zlVybFzU" opacity="1" fill-opacity="0" stroke="#000000" stroke-width="1" stroke-opacity="0"></use></g></g><g><use xlink:href="#b1SS5sWrFy" opacity="1" fill="#000000" fill-opacity="0"></use><g><use xlink:href="#b1SS5sWrFy" opacity="1" fill-opacity="0" stroke="#d22856" stroke-width="2" stroke-opacity="1"></use></g></g><g><use xlink:href="#b2gBOCBHY" opacity="1" fill="#000000" fill-opacity="0"></use><g><use xlink:href="#b2gBOCBHY" opacity="1" fill-opacity="0" stroke="#000000" stroke-width="1" stroke-opacity="0"></use></g></g><g><use xlink:href="#b6FpTMrbLc" opacity="1" fill="#000000" fill-opacity="0"></use><g><use xlink:href="#b6FpTMrbLc" opacity="1" fill-opacity="0" stroke="#d22856" stroke-width="2" stroke-opacity="1"></use></g></g><g><use xlink:href="#c3QcNoYjXo" opacity="1" fill="#000000" fill-opacity="0"></use><g><use xlink:href="#c3QcNoYjXo" opacity="1" fill-opacity="0" stroke="#000000" stroke-width="1" stroke-opacity="0"></use></g></g><g><use xlink:href="#b4Vg19oHv" opacity="1" fill="#000000" fill-opacity="0"></use><g><use xlink:href="#b4Vg19oHv" opacity="1" fill-opacity="0" stroke="#d22856" stroke-width="2" stroke-opacity="1"></use></g></g><g><use xlink:href="#b2U5E7K5W" opacity="1" fill="#000000" fill-opacity="0"></use><g><use xlink:href="#b2U5E7K5W" opacity="1" fill-opacity="0" stroke="#000000" stroke-width="1" stroke-opacity="0"></use></g></g><g><use xlink:href="#h6rLa8HXQc" opacity="1" fill="#000000" fill-opacity="0"></use><g><use xlink:href="#h6rLa8HXQc" opacity="1" fill-opacity="0" stroke="#d22856" stroke-width="2" stroke-opacity="1"></use></g></g><g><use xlink:href="#b2Rr2rF9K" opacity="1" fill="#000000" fill-opacity="0"></use><g><use xlink:href="#b2Rr2rF9K" opacity="1" fill-opacity="0" stroke="#000000" stroke-width="1" stroke-opacity="0"></use></g></g><g><use xlink:href="#a2fhSp5XWB" opacity="1" fill="#000000" fill-opacity="0"></use><g><use xlink:href="#a2fhSp5XWB" opacity="1" fill-opacity="0" stroke="#d22856" stroke-width="2" stroke-opacity="1"></use></g></g><g><use xlink:href="#a3M96OgFj" opacity="1" fill="#000000" fill-opacity="0"></use><g><use xlink:href="#a3M96OgFj" opacity="1" fill-opacity="0" stroke="#000000" stroke-width="1" stroke-opacity="0"></use></g></g><g><use xlink:href="#cw48jjry1" opacity="1" fill="#000000" fill-opacity="0"></use><g><use xlink:href="#cw48jjry1" opacity="1" fill-opacity="0" stroke="#d22856" stroke-width="2" stroke-opacity="1"></use></g></g><g><use xlink:href="#b5DGcIh9K" opacity="1" fill="#000000" fill-opacity="0"></use><g><use xlink:href="#b5DGcIh9K" opacity="1" fill-opacity="0" stroke="#000000" stroke-width="1" stroke-opacity="0"></use></g></g><g><use xlink:href="#d1PuNYSX4q" opacity="1" fill="#000000" fill-opacity="0"></use><g><use xlink:href="#d1PuNYSX4q" opacity="1" fill-opacity="0" stroke="#d22856" stroke-width="2" stroke-opacity="1"></use></g></g><g><use xlink:href="#b1veVKuLyk" opacity="1" fill="#000000" fill-opacity="0"></use><g><use xlink:href="#b1veVKuLyk" opacity="1" fill-opacity="0" stroke="#000000" stroke-width="1" stroke-opacity="0"></use></g></g><g><use xlink:href="#cLtf7C92V" opacity="1" fill="#000000" fill-opacity="0"></use><g><use xlink:href="#cLtf7C92V" opacity="1" fill-opacity="0" stroke="#d22856" stroke-width="2" stroke-opacity="1"></use></g></g><g><use xlink:href="#d3W7fwU6o" opacity="1" fill="#000000" fill-opacity="0"></use><g><use xlink:href="#d3W7fwU6o" opacity="1" fill-opacity="0" stroke="#000000" stroke-width="1" stroke-opacity="0"></use></g></g><g><use xlink:href="#aiKSJVJkV" opacity="1" fill="#000000" fill-opacity="0"></use><g><use xlink:href="#aiKSJVJkV" opacity="1" fill-opacity="0" stroke="#d22856" stroke-width="2" stroke-opacity="1"></use></g></g><g><use xlink:href="#a3DdOV0E0L" opacity="1" fill="#000000" fill-opacity="0"></use><g><use xlink:href="#a3DdOV0E0L" opacity="1" fill-opacity="0" stroke="#000000" stroke-width="1" stroke-opacity="0"></use></g></g><g><use xlink:href="#d4XJ9eYnr" opacity="1" fill="#000000" fill-opacity="0"></use><g><use xlink:href="#d4XJ9eYnr" opacity="1" fill-opacity="0" stroke="#000000" stroke-width="1" stroke-opacity="0"></use></g></g><g><use xlink:href="#j1xBbyXe8J" opacity="1" fill="#000000" fill-opacity="0"></use><g><use xlink:href="#j1xBbyXe8J" opacity="1" fill-opacity="0" stroke="#000000" stroke-width="1" stroke-opacity="0"></use></g></g><g><use xlink:href="#b3pm3cMIh7" opacity="1" fill="#000000" fill-opacity="0"></use><g><use xlink:href="#b3pm3cMIh7" opacity="1" fill-opacity="0" stroke="#d22856" stroke-width="2" stroke-opacity="1"></use></g></g><g><use xlink:href="#a2yCWDlaNd" opacity="1" fill="#000000" fill-opacity="0"></use><g><use xlink:href="#a2yCWDlaNd" opacity="1" fill-opacity="0" stroke="#000000" stroke-width="1" stroke-opacity="0"></use></g></g><g><use xlink:href="#c10Kg9txu0" opacity="1" fill="#000000" fill-opacity="0"></use><g><use xlink:href="#c10Kg9txu0" opacity="1" fill-opacity="0" stroke="#000000" stroke-width="1" stroke-opacity="0"></use></g></g><g><use xlink:href="#dlJiz7cv9" opacity="1" fill="#000000" fill-opacity="0"></use><g><use xlink:href="#dlJiz7cv9" opacity="1" fill-opacity="0" stroke="#000000" stroke-width="1" stroke-opacity="0"></use></g></g><g><use xlink:href="#e18z4h0nS1" opacity="1" fill="#000000" fill-opacity="0"></use><g><use xlink:href="#e18z4h0nS1" opacity="1" fill-opacity="0" stroke="#d22856" stroke-width="2" stroke-opacity="1"></use></g></g><g><use xlink:href="#fA9MKPiOp" opacity="1" fill="#000000" fill-opacity="0"></use><g><use xlink:href="#fA9MKPiOp" opacity="1" fill-opacity="0" stroke="#000000" stroke-width="1" stroke-opacity="0"></use></g></g><g><use xlink:href="#ftIe4YjfD" opacity="1" fill="#000000" fill-opacity="0"></use><g><use xlink:href="#ftIe4YjfD" opacity="1" fill-opacity="0" stroke="#d22856" stroke-width="2" stroke-opacity="1"></use></g></g><g><use xlink:href="#er9qSr3Aw" opacity="1" fill="#000000" fill-opacity="0"></use><g><use xlink:href="#er9qSr3Aw" opacity="1" fill-opacity="0" stroke="#000000" stroke-width="1" stroke-opacity="0"></use></g></g><g><use xlink:href="#gmOPYM3Ac" opacity="1" fill="#000000" fill-opacity="0"></use><g><use xlink:href="#gmOPYM3Ac" opacity="1" fill-opacity="0" stroke="#d22856" stroke-width="2" stroke-opacity="1"></use></g></g><g><use xlink:href="#c4oF8MFE4" opacity="1" fill="#000000" fill-opacity="0"></use><g><use xlink:href="#c4oF8MFE4" opacity="1" fill-opacity="0" stroke="#000000" stroke-width="1" stroke-opacity="0"></use></g></g><g><use xlink:href="#bwjBIckhw" opacity="1" fill="#000000" fill-opacity="0"></use><g><use xlink:href="#bwjBIckhw" opacity="1" fill-opacity="0" stroke="#000000" stroke-width="1" stroke-opacity="0"></use></g></g><g><use xlink:href="#c2WZzr8lbl" opacity="1" fill="#000000" fill-opacity="0"></use><g><use xlink:href="#c2WZzr8lbl" opacity="1" fill-opacity="0" stroke="#000000" stroke-width="1" stroke-opacity="0"></use></g></g><g><use xlink:href="#a3WMvD5p6K" opacity="1" fill="#000000" fill-opacity="0"></use><g><use xlink:href="#a3WMvD5p6K" opacity="1" fill-opacity="0" stroke="#d22856" stroke-width="2" stroke-opacity="1"></use></g></g><g><use xlink:href="#j8s0STzHZ" opacity="1" fill="#000000" fill-opacity="0"></use><g><use xlink:href="#j8s0STzHZ" opacity="1" fill-opacity="0" stroke="#000000" stroke-width="1" stroke-opacity="0"></use></g></g><g><use xlink:href="#a2SmtDG1H2" opacity="1" fill="#000000" fill-opacity="0"></use><g><use xlink:href="#a2SmtDG1H2" opacity="1" fill-opacity="0" stroke="#000000" stroke-width="1" stroke-opacity="0"></use></g></g><g><use xlink:href="#d5kpL8jH0" opacity="1" fill="#000000" fill-opacity="0"></use><g><use xlink:href="#d5kpL8jH0" opacity="1" fill-opacity="0" stroke="#000000" stroke-width="1" stroke-opacity="0"></use></g></g><g><use xlink:href="#bmLw35UBv" opacity="1" fill="#000000" fill-opacity="0"></use><g><use xlink:href="#bmLw35UBv" opacity="1" fill-opacity="0" stroke="#d22856" stroke-width="2" stroke-opacity="1"></use></g></g><g><use xlink:href="#c2hXBD4b6A" opacity="1" fill="#000000" fill-opacity="0"></use><g><use xlink:href="#c2hXBD4b6A" opacity="1" fill-opacity="0" stroke="#000000" stroke-width="1" stroke-opacity="0"></use></g></g><g><use xlink:href="#a32MbZhKK" opacity="1" fill="#000000" fill-opacity="0"></use><g><use xlink:href="#a32MbZhKK" opacity="1" fill-opacity="0" stroke="#000000" stroke-width="1" stroke-opacity="0"></use></g></g><g><use xlink:href="#b2X2HUPH2F" opacity="1" fill="#000000" fill-opacity="0"></use><g><use xlink:href="#b2X2HUPH2F" opacity="1" fill-opacity="0" stroke="#000000" stroke-width="1" stroke-opacity="0"></use></g></g><g><use xlink:href="#bkRW7InMs" opacity="1" fill="#000000" fill-opacity="0"></use><g><use xlink:href="#bkRW7InMs" opacity="1" fill-opacity="0" stroke="#d22856" stroke-width="2" stroke-opacity="1"></use></g></g><g><use xlink:href="#b2eSCqvsgi" opacity="1" fill="#000000" fill-opacity="0"></use><g><use xlink:href="#b2eSCqvsgi" opacity="1" fill-opacity="0" stroke="#000000" stroke-width="1" stroke-opacity="0"></use></g></g><g><use xlink:href="#bn6TR2x6D" opacity="1" fill="#000000" fill-opacity="0"></use><g><use xlink:href="#bn6TR2x6D" opacity="1" fill-opacity="0" stroke="#000000" stroke-width="1" stroke-opacity="0"></use></g></g><g><use xlink:href="#e2eeyWRvVt" opacity="1" fill="#000000" fill-opacity="0"></use><g><use xlink:href="#e2eeyWRvVt" opacity="1" fill-opacity="0" stroke="#000000" stroke-width="1" stroke-opacity="0"></use></g></g><g><use xlink:href="#cYq3vARk0" opacity="1" fill="#000000" fill-opacity="0"></use><g><use xlink:href="#cYq3vARk0" opacity="1" fill-opacity="0" stroke="#d22856" stroke-width="2" stroke-opacity="1"></use></g></g><g><use xlink:href="#b1oocMspGs" opacity="1" fill="#000000" fill-opacity="0"></use><g><use xlink:href="#b1oocMspGs" opacity="1" fill-opacity="0" stroke="#000000" stroke-width="1" stroke-opacity="0"></use></g></g><g><use xlink:href="#gZCwkX4hz" opacity="1" fill="#000000" fill-opacity="0"></use><g><use xlink:href="#gZCwkX4hz" opacity="1" fill-opacity="0" stroke="#000000" stroke-width="1" stroke-opacity="0"></use></g></g><g><use xlink:href="#bJoAEgFLK" opacity="1" fill="#000000" fill-opacity="0"></use><g><use xlink:href="#bJoAEgFLK" opacity="1" fill-opacity="0" stroke="#000000" stroke-width="1" stroke-opacity="0"></use></g></g><g><use xlink:href="#atuWWq4uT" opacity="1" fill="#000000" fill-opacity="0"></use><g><use xlink:href="#atuWWq4uT" opacity="1" fill-opacity="0" stroke="#d22856" stroke-width="2" stroke-opacity="1"></use></g></g><g><use xlink:href="#bC42lIqBR" opacity="1" fill="#000000" fill-opacity="0"></use><g><use xlink:href="#bC42lIqBR" opacity="1" fill-opacity="0" stroke="#000000" stroke-width="1" stroke-opacity="0"></use></g></g><g><use xlink:href="#d1W0sxNngM" opacity="1" fill="#000000" fill-opacity="0"></use><g><use xlink:href="#d1W0sxNngM" opacity="1" fill-opacity="0" stroke="#000000" stroke-width="1" stroke-opacity="0"></use></g></g><g><use xlink:href="#agWeuZGmv" opacity="1" fill="#000000" fill-opacity="0"></use><g><use xlink:href="#agWeuZGmv" opacity="1" fill-opacity="0" stroke="#000000" stroke-width="1" stroke-opacity="0"></use></g></g><g><use xlink:href="#lh3QgADH" opacity="1" fill="#000000" fill-opacity="0"></use><g><use xlink:href="#lh3QgADH" opacity="1" fill-opacity="0" stroke="#d22856" stroke-width="2" stroke-opacity="1"></use></g></g><g><use xlink:href="#chR9lnJNL" opacity="1" fill="#000000" fill-opacity="0"></use><g><use xlink:href="#chR9lnJNL" opacity="1" fill-opacity="0" stroke="#000000" stroke-width="1" stroke-opacity="0"></use></g></g><g><use xlink:href="#ceQmqSbEW" opacity="1" fill="#000000" fill-opacity="0"></use><g><use xlink:href="#ceQmqSbEW" opacity="1" fill-opacity="0" stroke="#d22856" stroke-width="2" stroke-opacity="1"></use></g></g><g><use xlink:href="#a7mHNaIpL" opacity="1" fill="#000000" fill-opacity="0"></use><g><use xlink:href="#a7mHNaIpL" opacity="1" fill-opacity="0" stroke="#000000" stroke-width="1" stroke-opacity="0"></use></g></g><g><use xlink:href="#a2GJdzV1fp" opacity="1" fill="#000000" fill-opacity="0"></use><g><use xlink:href="#a2GJdzV1fp" opacity="1" fill-opacity="0" stroke="#d22856" stroke-width="2" stroke-opacity="1"></use></g></g><g><use xlink:href="#ddb9yFlWs" opacity="1" fill="#ffffff" fill-opacity="1"></use><g><use xlink:href="#ddb9yFlWs" opacity="1" fill-opacity="0" stroke="#000000" stroke-width="1" stroke-opacity="0"></use></g></g><g><use xlink:href="#b3W1xuULWv" opacity="1" fill="#000000" fill-opacity="0"></use><g><use xlink:href="#b3W1xuULWv" opacity="1" fill-opacity="0" stroke="#000000" stroke-width="1" stroke-opacity="0"></use></g></g><g><use xlink:href="#cTOHKpnVn" opacity="1" fill="#000000" fill-opacity="0"></use><g><use xlink:href="#cTOHKpnVn" opacity="1" fill-opacity="0" stroke="#000000" stroke-width="1" stroke-opacity="0"></use></g></g><g><use xlink:href="#a7Ttay3me" opacity="1" fill="#000000" fill-opacity="0"></use><g><use xlink:href="#a7Ttay3me" opacity="1" fill-opacity="0" stroke="#e5e5e5" stroke-width="2" stroke-opacity="1"></use></g></g></g></g></svg>