<?xml version="1.0" encoding="UTF-8" standalone="no"?>
<!DOCTYPE svg PUBLIC "-//W3C//DTD SVG 1.1//EN" "http://www.w3.org/Graphics/SVG/1.1/DTD/svg11.dtd">
<svg version="1.1" xmlns="http://www.w3.org/2000/svg" xmlns:xlink="http://www.w3.org/1999/xlink" preserveAspectRatio="xMidYMid meet" viewBox="0 0 640 640" width="640" height="640"><defs><path d="M40.26 2.6C41.6 2.6 42.26 3.26 42.26 4.6C42.26 24.4 42.26 35.4 42.26 37.6C42.26 38.93 41.6 39.6 40.26 39.6C20.46 39.6 9.46 39.6 7.26 39.6C5.93 39.6 5.26 38.93 5.26 37.6C5.26 17.8 5.26 6.8 5.26 4.6C5.26 3.26 5.93 2.6 7.26 2.6C27.06 2.6 38.06 2.6 40.26 2.6Z" id="a1KtEteWgB"></path><path d="M33.75 13.1C33.49 13.1 33.23 13.2 33.04 13.38C32.14 14.27 27.61 18.71 19.47 26.7C16.49 23.78 14.83 22.15 14.5 21.83C14.4 21.73 14.29 21.66 14.17 21.61C14.04 21.56 13.91 21.53 13.78 21.53C13.64 21.53 13.51 21.56 13.39 21.61C13.26 21.66 13.15 21.73 13.06 21.83C12.87 22.01 12.76 22.26 12.76 22.53C12.76 22.79 12.87 23.04 13.06 23.23C13.63 23.79 18.18 28.25 18.75 28.81C18.84 28.9 18.95 28.97 19.08 29.02C19.2 29.07 19.33 29.1 19.47 29.1C19.73 29.1 19.99 28.99 20.18 28.81C21.6 27.41 33.03 16.19 34.46 14.79C34.56 14.7 34.63 14.59 34.69 14.47C34.74 14.35 34.76 14.22 34.76 14.09C34.76 13.96 34.74 13.83 34.69 13.7C34.63 13.58 34.56 13.47 34.46 13.38C34.27 13.2 34.02 13.1 33.75 13.1Z" id="e1mWRQK9i9"></path></defs><g><g><g><use xlink:href="#a1KtEteWgB" opacity="1" fill="#ffffff" fill-opacity="1"></use><g><use xlink:href="#a1KtEteWgB" opacity="1" fill-opacity="0" stroke="#d22856" stroke-width="2" stroke-opacity="1"></use></g></g><g><use xlink:href="#e1mWRQK9i9" opacity="1" fill="#d22856" fill-opacity="1"></use><g><use xlink:href="#e1mWRQK9i9" opacity="1" fill-opacity="0" stroke="#000000" stroke-width="1" stroke-opacity="0"></use></g></g></g></g></svg>